<svg class="generator__canvas" viewBox="0 0 200 200" xmlns="http://www.w3.org/2000/svg" version="1.1" xmlns:xlink="http://www.w3.org/1999/xlink" xmlns:svgjs="http://svgjs.com/svgjs"><circle r="10" cx="10" cy="10" fill="#e32838" transform="matrix(0.5250555691049872,0,0,0.5250555691049872,4.749444308950128,4.749444308950128)"></circle><circle r="10" cx="10" cy="30" fill="#e32838" transform="matrix(0.4325642870723303,0,0,0.4325642870723303,5.6743571292766966,17.023071387830093)"></circle><circle r="10" cx="10" cy="50" fill="#e32838" transform="matrix(0.33256762430386255,0,0,0.33256762430386255,6.674323756961375,33.37161878480687)"></circle><circle r="10" cx="10" cy="70" fill="#e32838" transform="matrix(0.25132170243012053,0,0,0.25132170243012053,7.4867829756987945,52.40748082989156)"></circle><circle r="10" cx="10" cy="90" fill="#e32838" transform="matrix(0.20987987306472722,0,0,0.20987987306472722,7.901201269352728,71.11081142417456)"></circle><circle r="10" cx="10" cy="110" fill="#e32838" transform="matrix(0.22167556443371467,0,0,0.22167556443371467,7.783244355662854,85.61568791229138)"></circle><circle r="10" cx="10" cy="130" fill="#e32838" transform="matrix(0.2855071223440202,0,0,0.2855071223440202,7.144928776559798,92.88407409527737)"></circle><circle r="10" cx="10" cy="150" fill="#e32838" transform="matrix(0.3783843607145705,0,0,0.3783843607145705,6.216156392854295,93.24234589281443)"></circle><circle r="10" cx="10" cy="170" fill="#e32838" transform="matrix(0.4645062926761128,0,0,0.4645062926761128,5.3549370732388715,91.03393024506082)"></circle><circle r="10" cx="10" cy="190" fill="#e32838" transform="matrix(0.5128131686622921,0,0,0.5128131686622921,4.871868313377079,92.5654979541645)"></circle><circle r="10" cx="30" cy="10" fill="#e32838" transform="matrix(0.43336523500914165,0,0,0.43336523500914165,16.999042949725748,5.666347649908584)"></circle><circle r="10" cx="30" cy="30" fill="#e32838" transform="matrix(0.34133383064221223,0,0,0.34133383064221223,19.759985080733635,19.759985080733635)"></circle><circle r="10" cx="30" cy="50" fill="#e32838" transform="matrix(0.2505069710203553,0,0,0.2505069710203553,22.484790869389343,37.474651448982236)"></circle><circle r="10" cx="30" cy="70" fill="#e32838" transform="matrix(0.18504555898804634,0,0,0.18504555898804634,24.44863323035861,57.04681087083676)"></circle><circle r="10" cx="30" cy="90" fill="#e32838" transform="matrix(0.1598088501554186,0,0,0.1598088501554186,25.205734495337442,75.61720348601233)"></circle><circle r="10" cx="30" cy="110" fill="#e32838" transform="matrix(0.17826085507636222,0,0,0.17826085507636222,24.652174347709135,90.39130594160015)"></circle><circle r="10" cx="30" cy="130" fill="#e32838" transform="matrix(0.23607158189558,0,0,0.23607158189558,22.9178525431326,99.3106943535746)"></circle><circle r="10" cx="30" cy="150" fill="#e32838" transform="matrix(0.3149369702600453,0,0,0.3149369702600453,20.551890892198642,102.7594544609932)"></circle><circle r="10" cx="30" cy="170" fill="#e32838" transform="matrix(0.3870401161492104,0,0,0.3870401161492104,18.388796515523687,104.20318025463423)"></circle><circle r="10" cx="30" cy="190" fill="#e32838" transform="matrix(0.4294027553450648,0,0,0.4294027553450648,17.117917339648056,108.4134764844377)"></circle><circle r="10" cx="50" cy="10" fill="#e32838" transform="matrix(0.3614951407482639,0,0,0.3614951407482639,31.925242962586804,6.385048592517361)"></circle><circle r="10" cx="50" cy="30" fill="#e32838" transform="matrix(0.28038103351425514,0,0,0.28038103351425514,35.98094832428724,21.588568994572345)"></circle><circle r="10" cx="50" cy="50" fill="#e32838" transform="matrix(0.20683723793178238,0,0,0.20683723793178238,39.65813810341088,39.65813810341088)"></circle><circle r="10" cx="50" cy="70" fill="#e32838" transform="matrix(0.1589737755343021,0,0,0.1589737755343021,42.0513112232849,58.87183571259885)"></circle><circle r="10" cx="50" cy="90" fill="#e32838" transform="matrix(0.14542423395545856,0,0,0.14542423395545856,42.72878830222707,76.91181894400873)"></circle><circle r="10" cx="50" cy="110" fill="#e32838" transform="matrix(0.16462644156536477,0,0,0.16462644156536477,41.768677921731765,91.89109142780987)"></circle><circle r="10" cx="50" cy="130" fill="#e32838" transform="matrix(0.20859704289342604,0,0,0.20859704289342604,39.5701478553287,102.88238442385462)"></circle><circle r="10" cx="50" cy="150" fill="#e32838" transform="matrix(0.26377037306101186,0,0,0.26377037306101186,36.81148134694941,110.43444404084822)"></circle><circle r="10" cx="50" cy="170" fill="#e32838" transform="matrix(0.3119610299902814,0,0,0.3119610299902814,34.40194850048593,116.96662490165215)"></circle><circle r="10" cx="50" cy="190" fill="#e32838" transform="matrix(0.3404450081231852,0,0,0.3404450081231852,32.97774959384074,125.31544845659482)"></circle><circle r="10" cx="70" cy="10" fill="#e32838" transform="matrix(0.31011851119732753,0,0,0.31011851119732753,48.29170421618707,6.898814888026725)"></circle><circle r="10" cx="70" cy="30" fill="#e32838" transform="matrix(0.2510681716914907,0,0,0.2510681716914907,52.425227981595654,22.46795484925528)"></circle><circle r="10" cx="70" cy="50" fill="#e32838" transform="matrix(0.20314155356587688,0,0,0.20314155356587688,55.78009125038862,39.842922321706155)"></circle><circle r="10" cx="70" cy="70" fill="#e32838" transform="matrix(0.17492564048728731,0,0,0.17492564048728731,57.75520516588989,57.75520516588989)"></circle><circle r="10" cx="70" cy="90" fill="#e32838" transform="matrix(0.1692346922000144,0,0,0.1692346922000144,58.15357154599899,74.7688777019987)"></circle><circle r="10" cx="70" cy="110" fill="#e32838" transform="matrix(0.18389023319829237,0,0,0.18389023319829237,57.12768367611953,89.77207434818784)"></circle><circle r="10" cx="70" cy="130" fill="#e32838" transform="matrix(0.21062083574674123,0,0,0.21062083574674123,55.256541497728115,102.61929135292364)"></circle><circle r="10" cx="70" cy="150" fill="#e32838" transform="matrix(0.23860426706974774,0,0,0.23860426706974774,53.297701305117656,114.20935993953785)"></circle><circle r="10" cx="70" cy="170" fill="#e32838" transform="matrix(0.25895472899514344,0,0,0.25895472899514344,51.87316897033996,125.97769607082562)"></circle><circle r="10" cx="70" cy="190" fill="#e32838" transform="matrix(0.26979274489445065,0,0,0.26979274489445065,51.11450785738845,138.73937847005436)"></circle><circle r="10" cx="90" cy="10" fill="#e32838" transform="matrix(0.27339337672682373,0,0,0.27339337672682373,65.39459609458586,7.266066232731763)"></circle><circle r="10" cx="90" cy="30" fill="#e32838" transform="matrix(0.24290621591422495,0,0,0.24290621591422495,68.13844056771975,22.71281352257325)"></circle><circle r="10" cx="90" cy="50" fill="#e32838" transform="matrix(0.22472164562870206,0,0,0.22472164562870206,69.77505189341682,38.7639177185649)"></circle><circle r="10" cx="90" cy="70" fill="#e32838" transform="matrix(0.21900979671316437,0,0,0.21900979671316437,70.2891182958152,54.6693142300785)"></circle><circle r="10" cx="90" cy="90" fill="#e32838" transform="matrix(0.2228402641581188,0,0,0.2228402641581188,69.9443762257693,69.9443762257693)"></circle><circle r="10" cx="90" cy="110" fill="#e32838" transform="matrix(0.23203039972894982,0,0,0.23203039972894982,69.11726402439452,84.47665602981552)"></circle><circle r="10" cx="90" cy="130" fill="#e32838" transform="matrix(0.24168198228517979,0,0,0.24168198228517979,68.24862159433383,98.58134230292663)"></circle><circle r="10" cx="90" cy="150" fill="#e32838" transform="matrix(0.24588362314958984,0,0,0.24588362314958984,67.87047391653692,113.11745652756153)"></circle><circle r="10" cx="90" cy="170" fill="#e32838" transform="matrix(0.2425501496591937,0,0,0.2425501496591937,68.17048653067258,128.76647455793707)"></circle><circle r="10" cx="90" cy="190" fill="#e32838" transform="matrix(0.2386638871304971,0,0,0.2386638871304971,68.52025015825527,144.65386144520556)"></circle><circle r="10" cx="110" cy="10" fill="#e32838" transform="matrix(0.2488923479989072,0,0,0.2488923479989072,82.62184172012022,7.511076520010928)"></circle><circle r="10" cx="110" cy="30" fill="#e32838" transform="matrix(0.2463856773247512,0,0,0.2463856773247512,82.89757549427736,22.608429680257466)"></circle><circle r="10" cx="110" cy="50" fill="#e32838" transform="matrix(0.2560948661724057,0,0,0.2560948661724057,81.82956472103538,37.19525669137972)"></circle><circle r="10" cx="110" cy="70" fill="#e32838" transform="matrix(0.2724165910671177,0,0,0.2724165910671177,80.03417498261706,50.93083862530176)"></circle><circle r="10" cx="110" cy="90" fill="#e32838" transform="matrix(0.287982662293416,0,0,0.287982662293416,78.32190714772423,64.08156039359255)"></circle><circle r="10" cx="110" cy="110" fill="#e32838" transform="matrix(0.29630851440198613,0,0,0.29630851440198613,77.40606341578152,77.40606341578152)"></circle><circle r="10" cx="110" cy="130" fill="#e32838" transform="matrix(0.2941957610851846,0,0,0.2941957610851846,77.6384662806297,91.75455105892601)"></circle><circle r="10" cx="110" cy="150" fill="#e32838" transform="matrix(0.28287870363172846,0,0,0.28287870363172846,78.88334260050988,107.56819445524073)"></circle><circle r="10" cx="110" cy="170" fill="#e32838" transform="matrix(0.2671670687531648,0,0,0.2671670687531648,80.61162243715187,124.58159831196198)"></circle><circle r="10" cx="110" cy="190" fill="#e32838" transform="matrix(0.25757166190491276,0,0,0.25757166190491276,81.66711719045959,141.06138423806658)"></circle><circle r="10" cx="130" cy="10" fill="#e32838" transform="matrix(0.23824805911939714,0,0,0.23824805911939714,99.02775231447836,7.617519408806029)"></circle><circle r="10" cx="130" cy="30" fill="#e32838" transform="matrix(0.2567100416270615,0,0,0.2567100416270615,96.627694588482,22.298698751188155)"></circle><circle r="10" cx="130" cy="50" fill="#e32838" transform="matrix(0.2867710134821,0,0,0.2867710134821,92.71976824732701,35.661449325895)"></circle><circle r="10" cx="130" cy="70" fill="#e32838" transform="matrix(0.32009586420981634,0,0,0.32009586420981634,88.38753765272388,47.59328950531285)"></circle><circle r="10" cx="130" cy="90" fill="#e32838" transform="matrix(0.3471684410301379,0,0,0.3471684410301379,84.86810266608208,58.754840307287594)"></circle><circle r="10" cx="130" cy="110" fill="#e32838" transform="matrix(0.36037676761338955,0,0,0.36037676761338955,83.15102021025936,70.35855556252716)"></circle><circle r="10" cx="130" cy="130" fill="#e32838" transform="matrix(0.35745751519130287,0,0,0.35745751519130287,83.53052302513063,83.53052302513063)"></circle><circle r="10" cx="130" cy="150" fill="#e32838" transform="matrix(0.34369211600253513,0,0,0.34369211600253513,85.32002491967043,98.44618259961973)"></circle><circle r="10" cx="130" cy="170" fill="#e32838" transform="matrix(0.3292815802385515,0,0,0.3292815802385515,87.19339456898831,114.02213135944625)"></circle><circle r="10" cx="130" cy="190" fill="#e32838" transform="matrix(0.32260457735504305,0,0,0.32260457735504305,88.0614049438444,128.70513030254182)"></circle><circle r="10" cx="150" cy="10" fill="#e32838" transform="matrix(0.2462106179379446,0,0,0.2462106179379446,113.06840730930831,7.537893820620554)"></circle><circle r="10" cx="150" cy="30" fill="#e32838" transform="matrix(0.27450726846597223,0,0,0.27450726846597223,108.82390973010416,21.764781946020832)"></circle><circle r="10" cx="150" cy="50" fill="#e32838" transform="matrix(0.313571259669049,0,0,0.313571259669049,102.96431104964265,34.32143701654755)"></circle><circle r="10" cx="150" cy="70" fill="#e32838" transform="matrix(0.35549921969798376,0,0,0.35549921969798376,96.67511704530244,45.11505462114114)"></circle><circle r="10" cx="150" cy="90" fill="#e32838" transform="matrix(0.3913995861333206,0,0,0.3913995861333206,91.29006208000192,54.77403724800114)"></circle><circle r="10" cx="150" cy="110" fill="#e32838" transform="matrix(0.4142747758517333,0,0,0.4142747758517333,87.85878362224001,64.42977465630935)"></circle><circle r="10" cx="150" cy="130" fill="#e32838" transform="matrix(0.42243284306972584,0,0,0.42243284306972584,86.63507353954112,75.08373040093565)"></circle><circle r="10" cx="150" cy="150" fill="#e32838" transform="matrix(0.42116981216688054,0,0,0.42116981216688054,86.82452817496792,86.82452817496792)"></circle><circle r="10" cx="150" cy="170" fill="#e32838" transform="matrix(0.4185102764616391,0,0,0.4185102764616391,87.22345853075413,98.85325300152135)"></circle><circle r="10" cx="150" cy="190" fill="#e32838" transform="matrix(0.41735692271120395,0,0,0.41735692271120395,87.3964615933194,110.70218468487126)"></circle><circle r="10" cx="170" cy="10" fill="#e32838" transform="matrix(0.28021324804860126,0,0,0.28021324804860126,122.36374783173778,7.197867519513988)"></circle><circle r="10" cx="170" cy="30" fill="#e32838" transform="matrix(0.3064239252375193,0,0,0.3064239252375193,117.90793270962172,20.80728224287442)"></circle><circle r="10" cx="170" cy="50" fill="#e32838" transform="matrix(0.3423705499586576,0,0,0.3423705499586576,111.79700650702821,32.88147250206712)"></circle><circle r="10" cx="170" cy="70" fill="#e32838" transform="matrix(0.3834327816003854,0,0,0.3834327816003854,104.81642712793447,43.159705287973026)"></circle><circle r="10" cx="170" cy="90" fill="#e32838" transform="matrix(0.42381963634160835,0,0,0.42381963634160835,97.95066182192657,51.85623272925525)"></circle><circle r="10" cx="170" cy="110" fill="#e32838" transform="matrix(0.4583013618175095,0,0,0.4583013618175095,92.08876849102339,59.586850200073954)"></circle><circle r="10" cx="170" cy="130" fill="#e32838" transform="matrix(0.4842403108394089,0,0,0.4842403108394089,87.67914715730049,67.04875959087684)"></circle><circle r="10" cx="170" cy="150" fill="#e32838" transform="matrix(0.5018313461628169,0,0,0.5018313461628169,84.68867115232113,74.72529807557747)"></circle><circle r="10" cx="170" cy="170" fill="#e32838" transform="matrix(0.5127901119470285,0,0,0.5127901119470285,82.82568096900515,82.82568096900515)"></circle><circle r="10" cx="170" cy="190" fill="#e32838" transform="matrix(0.5173955034290949,0,0,0.5173955034290949,82.04276441705386,91.69485434847196)"></circle><circle r="10" cx="190" cy="10" fill="#e32838" transform="matrix(0.34636428329965296,0,0,0.34636428329965296,124.19078617306593,6.53635716700347)"></circle><circle r="10" cx="190" cy="30" fill="#e32838" transform="matrix(0.3615866791704586,0,0,0.3615866791704586,121.29853095761287,19.152399624886243)"></circle><circle r="10" cx="190" cy="50" fill="#e32838" transform="matrix(0.38453443528243214,0,0,0.38453443528243214,116.93845729633789,30.773278235878394)"></circle><circle r="10" cx="190" cy="70" fill="#e32838" transform="matrix(0.41564382850307646,0,0,0.41564382850307646,111.02767258441547,40.90493200478465)"></circle><circle r="10" cx="190" cy="90" fill="#e32838" transform="matrix(0.453394553137408,0,0,0.453394553137408,103.85503490389247,49.19449021763328)"></circle><circle r="10" cx="190" cy="110" fill="#e32838" transform="matrix(0.4940515944129723,0,0,0.4940515944129723,96.13019706153526,55.65432461457305)"></circle><circle r="10" cx="190" cy="130" fill="#e32838" transform="matrix(0.532721474774987,0,0,0.532721474774987,88.78291979275247,60.74620827925169)"></circle><circle r="10" cx="190" cy="150" fill="#e32838" transform="matrix(0.564882713546067,0,0,0.564882713546067,82.67228442624727,65.26759296808994)"></circle><circle r="10" cx="190" cy="170" fill="#e32838" transform="matrix(0.5871401931957164,0,0,0.5871401931957164,78.44336329281388,70.1861671567282)"></circle><circle r="10" cx="190" cy="190" fill="#e32838" transform="matrix(0.5966092256307775,0,0,0.5966092256307775,76.64424713015228,76.64424713015228)"></circle></svg>